HIERARCHY
ROOT Hips
{
	OFFSET 0.000000 0.000000 0.000000
	CHANNELS 6 Xposition Yposition Zposition Xrotation Yrotation Zrotation
	JOINT Chest
	{
		OFFSET 0.000000 9.581000 -0.001100
		CHANNELS 3 Xrotation Yrotation Zrotation
		JOINT Chest2
		{
			OFFSET 0.000000 9.561100 0.002200
			CHANNELS 3 Xrotation Yrotation Zrotation
			JOINT Chest3
			{
				OFFSET 0.000000 9.521100 0.000000
				CHANNELS 3 Xrotation Yrotation Zrotation
				JOINT Chest4
				{
					OFFSET 0.000000 9.511400 0.000000
					CHANNELS 3 Xrotation Yrotation Zrotation
					JOINT Neck
					{
						OFFSET 0.000000 14.375100 0.000000
						CHANNELS 3 Xrotation Yrotation Zrotation
						JOINT Head
						{
							OFFSET 0.000000 8.901200 0.004600
							CHANNELS 3 Xrotation Yrotation Zrotation
							End Site
							{
								OFFSET 0.000000 0.000000 0.000000
							}
						}
					}
					JOINT RightCollar
					{
						OFFSET -2.920100 9.518800 0.000000
						CHANNELS 3 Xrotation Yrotation Zrotation
						JOINT RightShoulder
						{
							OFFSET -13.664500 0.000000 0.000000
							CHANNELS 3 Xrotation Yrotation Zrotation
							JOINT RightElbow
							{
								OFFSET 0.000000 -29.999201 0.000000
								CHANNELS 3 Xrotation Yrotation Zrotation
								JOINT RightWrist
								{
									OFFSET 0.000000 -24.253599 0.000000
									CHANNELS 3 Xrotation Yrotation Zrotation
									End Site
									{
										OFFSET 0.000000 0.000000 0.000000
									}
								}
							}
						}
					}
					JOINT LeftCollar
					{
						OFFSET 2.920100 9.518800 0.000000
						CHANNELS 3 Xrotation Yrotation Zrotation
						JOINT LeftShoulder
						{
							OFFSET 13.664500 0.000000 0.000000
							CHANNELS 3 Xrotation Yrotation Zrotation
							JOINT LeftElbow
							{
								OFFSET 0.000000 -29.999201 0.000000
								CHANNELS 3 Xrotation Yrotation Zrotation
								JOINT LeftWrist
								{
									OFFSET 0.000000 -24.253599 0.000000
									CHANNELS 3 Xrotation Yrotation Zrotation
									End Site
									{
										OFFSET 0.000000 0.000000 0.000000
									}
								}
							}
						}
					}
				}
			}
		}
	}
	JOINT RightHip
	{
		OFFSET -7.797300 0.005300 0.000500
		CHANNELS 3 Xrotation Yrotation Zrotation
		JOINT RightKnee
		{
			OFFSET 0.000000 -40.663399 -0.000500
			CHANNELS 3 Xrotation Yrotation Zrotation
			JOINT RightAnkle
			{
				OFFSET 0.000000 -39.523701 -0.000900
				CHANNELS 3 Xrotation Yrotation Zrotation
				JOINT RightToe
				{
					OFFSET 0.000000 -6.418000 14.485300
					CHANNELS 3 Xrotation Yrotation Zrotation
					End Site
					{
						OFFSET 0.000000 0.000000 0.000000
					}
				}
			}
		}
	}
	JOINT LeftHip
	{
		OFFSET 7.797300 0.005300 0.000500
		CHANNELS 3 Xrotation Yrotation Zrotation
		JOINT LeftKnee
		{
			OFFSET 0.000000 -40.663399 -0.000500
			CHANNELS 3 Xrotation Yrotation Zrotation
			JOINT LeftAnkle
			{
				OFFSET 0.000000 -39.523701 -0.000900
				CHANNELS 3 Xrotation Yrotation Zrotation
				JOINT LeftToe
				{
					OFFSET 0.000000 -6.418000 14.485300
					CHANNELS 3 Xrotation Yrotation Zrotation
					End Site
					{
						OFFSET 0.000000 0.000000 0.000000
					}
				}
			}
		}
	}
}
MOTION
Frames: 11
Frame Time: 0.032
0.0 0.0 0.0 -138.777327 -5.408961 178.605403 10.477434 11.472190 1.298171 5.139712 5.653331 -1.159155 0.831386 0.974312 1.745252 10.934627 6.435143 1.822194 12.360638 0.624115 -1.232871 -3.156481 5.423276 2.739425 -3.031197 -35.562053 -18.011875 -30.181943 34.842926 -79.154618 -106.261911 45.056982 40.264433 29.318024 2.995246 5.240469 20.045915 0.494011 7.187124 -61.046393 -5.658074 124.578429 -97.826689 -12.151658 4.116211 -28.010013 2.653455 10.248852 -35.492194 -15.023891 -9.479334 64.250299 5.169558 0.819482 8.349225 22.246336 8.672251 -0.602822 0.683661 0.667564 -33.557607 13.089870 9.743707 83.091478 3.551501 -4.319183 2.570593 2.473736 1.085805 1.128770 0.776180 -0.539435
0.0 0.0 0.0 -138.524938 -5.268802 178.809066 10.636439 11.483693 0.975738 5.241929 5.732541 -0.833900 0.948837 1.024956 2.071567 11.021029 6.500871 2.104759 12.477154 0.653638 -1.468413 -3.043236 5.452832 2.413031 -2.926560 -35.362123 -18.495712 -29.956189 34.748092 -79.459607 -106.475238 44.515112 40.723931 29.337261 3.121302 5.482536 20.090508 0.578316 7.604573 -60.749950 -5.478985 124.634150 -97.920768 -12.031353 3.845924 -27.876336 2.773760 10.107477 -35.434984 -14.969961 -9.622376 64.250954 5.099617 0.600472 8.457893 22.234047 8.406313 -0.495972 0.723680 0.420690 -33.542540 13.049374 9.963054 83.037615 3.483202 -4.563650 2.643361 2.514210 1.374190 1.233271 0.818369 -0.511652
0.0 0.0 0.0 -138.322341 -5.186992 178.859828 10.849598 11.491468 0.947750 5.590230 5.796974 -0.839122 1.223197 1.080155 2.072467 11.317200 6.572799 2.106853 12.725450 0.695480 -1.506932 -2.799194 5.455759 2.453846 -2.101086 -35.142935 -17.953127 -29.759141 34.522331 -79.480835 -105.787978 44.462339 40.139956 29.584408 3.170614 5.308822 20.377888 0.636399 7.411549 -60.572549 -4.865277 124.823947 -97.818725 -12.090032 3.731860 -27.608516 2.771773 10.116764 -35.282886 -15.040454 -9.686748 64.439345 5.205723 0.473651 8.760718 22.211693 8.265700 -0.230310 0.739199 0.375333 -33.277300 13.005519 9.875987 83.240328 3.687722 -4.698896 2.879185 2.498575 1.348004 1.480175 0.826469 -0.545018
0.0 0.0 0.0 -138.447716 -5.229481 178.848053 10.537615 11.425286 0.924535 5.315965 5.636309 -0.935383 0.955666 0.938029 1.983058 11.052933 6.407213 2.033423 12.479204 0.548973 -1.617422 -2.989354 5.410001 2.452667 -2.972866 -35.820835 -18.610312 -29.895468 34.649871 -79.904293 -106.289211 44.541013 40.189328 29.410013 3.073238 5.456599 20.271783 0.465414 7.329947 -60.751678 -5.386039 125.297621 -98.062337 -12.083758 3.784859 -27.911906 2.738914 10.092317 -35.479418 -15.086868 -9.802968 64.270502 5.070143 0.473341 8.578219 22.141622 8.221173 -0.436692 0.681910 0.327902 -33.469932 13.028843 9.873311 83.049500 3.303075 -4.668375 2.734092 2.464958 1.351926 1.294107 0.765951 -0.580852
0.0 0.0 0.0 -138.718751 -5.370918 178.656138 10.265714 11.399139 1.044529 5.181661 5.678764 -1.121177 0.803431 0.986819 1.822217 10.909068 6.417625 1.843664 12.337691 0.614248 -1.405073 -3.215945 5.387567 2.456348 -2.896367 -35.686420 -18.261720 -30.016465 34.917262 -79.875135 -106.417646 44.870525 40.183820 29.261661 2.990940 5.286356 20.143797 0.494902 7.320819 -60.900876 -5.366526 125.064479 -97.962084 -12.081657 4.034498 -28.158737 2.685670 10.239691 -35.491456 -15.018042 -9.546433 64.178889 5.034396 0.638243 8.353357 22.161928 8.452057 -0.657272 0.656774 0.445435 -33.584375 13.141714 9.809295 83.023313 3.441817 -4.441718 2.515989 2.427704 1.113026 1.077611 0.740357 -0.635197
0.0 0.0 0.0 -138.445476 -5.256640 178.800993 10.645605 11.399312 0.913749 5.538227 5.700557 -0.915343 1.140536 1.016950 2.018246 11.238880 6.456400 2.026544 12.615119 0.638869 -1.482858 -2.938386 5.363172 2.391701 -1.857065 -35.318334 -17.707788 -29.718372 34.430147 -79.777053 -105.654591 44.245590 39.593780 29.366938 2.982767 5.390539 20.378219 0.498017 7.376090 -60.353942 -4.495336 124.833510 -97.951490 -12.094803 3.795619 -27.793240 2.734300 10.252770 -35.344877 -15.089087 -9.577406 64.380236 5.078608 0.454543 8.622617 22.037766 8.261350 -0.372527 0.650354 0.364659 -33.362858 12.969472 9.853894 83.212427 3.602882 -4.642463 2.741475 2.384928 1.282186 1.347437 0.733226 -0.577580
0.0 0.0 0.0 -138.650272 -5.339587 178.656247 10.516219 11.542608 1.189877 5.252186 5.719016 -1.047639 0.865617 1.021403 1.911073 10.967806 6.450130 1.909897 12.390277 0.660550 -1.273053 -3.111122 5.441256 2.607671 -2.592568 -35.691212 -17.938240 -29.859326 34.870667 -79.819373 -106.501357 44.791732 39.975724 29.255500 3.129464 5.339958 20.244616 0.542307 7.422101 -60.779449 -5.196391 125.136483 -98.016445 -12.137822 4.008994 -28.005543 2.720183 10.497946 -35.442371 -15.082670 -9.426184 64.235265 5.224281 0.710766 8.361464 22.165542 8.571289 -0.564533 0.724526 0.631903 -33.553909 13.118229 9.878209 83.138702 3.613578 -4.388952 2.619255 2.491934 1.250056 1.187174 0.816698 -0.469719
0.0 0.0 0.0 -138.484681 -5.228544 178.858940 10.603025 11.442437 0.999845 5.280409 5.603501 -0.741121 0.920443 0.899137 2.183906 11.007955 6.342425 2.188485 12.423902 0.512772 -1.483153 -3.076363 5.340831 2.541395 -2.611763 -35.855406 -18.002550 -29.936292 34.516255 -79.986904 -106.196130 43.989820 39.912217 29.253222 3.079954 5.659159 20.277923 0.400042 7.446125 -60.444886 -5.030543 125.372343 -98.215518 -12.086863 3.919469 -27.987470 2.656795 10.380354 -35.528991 -15.162714 -9.600387 64.224993 5.035816 0.518319 8.463319 22.008044 8.332363 -0.525053 0.620377 0.446921 -33.552266 12.951400 10.051492 83.096286 3.332026 -4.551841 2.625402 2.393266 1.540022 1.216733 0.712356 -0.419611
0.0 0.0 0.0 -138.564294 -5.311764 178.749315 10.450558 11.500850 1.092094 5.225674 5.722802 -0.915715 0.847536 0.981536 2.026687 10.933452 6.428773 2.038471 12.372590 0.600879 -1.379929 -3.129450 5.410340 2.552558 -2.852902 -35.957579 -18.273022 -29.948955 34.896208 -80.280131 -106.802616 44.659786 40.265345 29.294111 3.274120 5.552394 20.320643 0.563993 7.480012 -60.849131 -5.606997 125.743605 -98.155242 -12.173747 4.030580 -28.121359 2.660938 10.430256 -35.484035 -15.124440 -9.544103 64.156424 5.145332 0.628753 8.427128 22.184442 8.480771 -0.570033 0.691411 0.526317 -33.558301 13.138276 9.984771 83.081649 3.475406 -4.434514 2.609431 2.474886 1.352856 1.169538 0.780029 -0.477478
0.0 0.0 0.0 -138.521277 -5.410089 178.569996 10.571702 11.460865 1.302969 5.359448 5.587179 -1.021036 1.015355 0.891878 1.902327 11.088935 6.329463 1.937356 12.525476 0.561915 -1.198881 -3.011900 5.297552 2.781218 -2.755146 -36.421950 -17.769657 -30.246844 34.623977 -80.215920 -106.348211 44.331230 39.572716 29.427047 3.348255 5.554829 20.480264 0.468235 7.258706 -60.709918 -5.672658 125.866671 -98.057228 -12.404405 4.192102 -28.048532 2.486470 10.576701 -35.290618 -15.317990 -9.411857 64.294831 5.209669 0.680477 8.545979 22.165272 8.732266 -0.451149 0.581088 0.701332 -33.365057 13.055031 9.940736 83.232999 3.529093 -4.332844 2.759161 2.369115 1.247981 1.300312 0.670831 -0.444964
0.0 0.0 0.0 -138.378991 -5.310435 178.686737 10.613539 11.623021 1.160604 5.451513 5.782107 -1.115008 1.049210 1.033373 1.859956 11.112773 6.511893 1.868432 12.562420 0.674378 -1.381262 -2.864508 5.471328 2.642549 -2.639305 -36.444257 -18.307349 -29.633513 34.810390 -80.837324 -107.055449 45.003601 40.002823 29.406891 3.694662 5.464587 20.618644 0.649567 7.277970 -60.961078 -5.826362 126.579989 -98.149176 -12.300644 4.070906 -27.983007 2.732842 10.438089 -35.281643 -15.238668 -9.619494 64.253003 5.406092 0.598803 8.655838 22.326283 8.511387 -0.337700 0.783381 0.589274 -33.315330 13.222366 9.856499 83.210111 3.617961 -4.520123 2.926875 2.554985 1.250177 1.425687 0.869251 -0.497317
